<svg xmlns="http://www.w3.org/2000/svg" width="64" height="64" fill="none"><path fill="#000" d="M32.002 0c14.023 0 21.82 0 26.911 5.09 5.092 5.092 5.091 12.888 5.091 26.91s0 21.818-5.09 26.91C53.82 64 46.024 64 32.001 64s-21.82 0-26.911-5.09C-.001 53.817 0 46.021 0 32S0 10.182 5.091 5.09C10.183 0 17.979 0 32.002 0Zm-.448 41.567c-.628 2.406 1.146 4.792 3.586 4.792h3.381l1.867-4.792h-8.834Zm1.11-4.776-17.368-.036v4.773l16.283.038 1.089-4.77 11.068.02 1.719-4.774-11.7-.019-1.09 4.768Zm-17.368-4.807 18.483.04 1.09-4.774-19.573-.04v4.774Zm20.667-9.509-1.11 4.773 15.822-.076 1.96-4.755-16.672.058Zm-20.667-.056 20.664.037.184-.833c.463-2.008-1.016-3.94-3.031-3.94l-17.817-.038v4.774Z"/></svg>