<svg xmlns="http://www.w3.org/2000/svg" width="105" height="20" fill="none"><path fill="#fff" d="M9.789 0c4.29 0 6.674 0 8.232 1.557 1.557 1.558 1.557 3.942 1.557 8.231 0 4.29 0 6.674-1.557 8.232-1.558 1.557-3.943 1.557-8.232 1.557-4.29 0-6.674 0-8.232-1.558C0 16.463 0 14.079 0 9.79 0 5.5 0 3.116 1.557 1.558 3.115 0 5.5 0 9.79 0Zm-.137 12.715c-.192.736.35 1.466 1.097 1.466h1.034l.571-1.466H9.652Zm.34-1.461-5.313-.011v1.46l4.98.011.334-1.458 3.385.005.526-1.46-3.579-.006-.333 1.459Zm-5.313-1.47 5.653.011.334-1.46-5.987-.012v1.46ZM11 6.874l-.34 1.46 4.84-.023.6-1.454-5.1.018Zm-6.322-.016 6.32.011.057-.255c.141-.614-.311-1.205-.927-1.205l-5.45-.012v1.46Zm30.874 8.614h2.542l.246-1.51h.462c.37 1.11 1.371 1.664 2.403 1.664 2.141 0 3.45-1.387 3.45-4.346 0-2.605-1.078-4.346-3.388-4.346-1.11 0-2.095.662-2.465 1.649h-.462l.154-2.312V3.913h-2.942v11.559Zm2.942-3.93v-.509c0-1.079.6-1.741 1.648-1.741.91 0 1.525.4 1.525 1.433v1.125c0 .848-.416 1.418-1.51 1.418-1.093 0-1.663-.663-1.663-1.726Zm6.931-.247c0 2.605 1.71 4.331 4.313 4.331 2.157 0 3.743-1.14 3.959-2.897h-2.803c-.078.477-.57.755-1.248.755-.693 0-1.263-.432-1.263-1.08v-.43h5.221c.093-.324.124-.771.124-1.203 0-2.497-1.803-3.837-4.082-3.837-2.372 0-4.22 1.572-4.22 4.361Zm2.958-1.079v-.17c0-.554.523-.955 1.232-.955s1.17.401 1.17.956v.17h-2.402Zm12.203-3.175c-.94 0-1.664.54-1.895 1.88h-.462l-.354-1.833h-3.866v2.358h1.278v6.026h2.942V12.05c0-1.757 1.094-2.25 2.342-2.25.169 0 .338.016.523.031V7.088a2.383 2.383 0 0 0-.508-.047Zm1.29.047v10.958h2.942v-1.757l-.154-2.312h.462c.37.986 1.356 1.649 2.465 1.649 2.31 0 3.389-1.742 3.389-4.346 0-2.96-1.31-4.346-3.45-4.346-1.033 0-2.034.554-2.404 1.664h-.462l-.246-1.51h-2.542Zm2.942 3.93c0-1.064.57-1.726 1.664-1.726 1.094 0 1.51.57 1.51 1.418v1.125c0 1.032-.617 1.433-1.525 1.433-1.048 0-1.649-.663-1.649-1.742v-.508Zm9.816 2.172V3.914h-2.927v9.324c0 1.341.539 2.235 2.233 2.235h2.604V13.19h-1.91Zm2.45-.076c0 1.541 1.125 2.512 2.85 2.512 1.432 0 2.434-.663 2.757-1.65h.416v1.496h3.08v-2.158h-1.062V9.97c0-1.819-1.048-3.036-3.728-3.036-2.464 0-3.897 1.063-3.805 3.128h2.696c-.046-.693.37-.924.97-.924.57 0 .94.23.94.816v.586l-2.341.154c-1.648.108-2.773.879-2.773 2.42Zm2.958-.4c0-.325.23-.633.754-.664l1.402-.092v.97c-.231.355-.693.587-1.263.587-.616 0-.893-.262-.893-.617v-.185Zm7.038 2.758h2.942v-4.485c0-.986.493-1.68 1.479-1.68.832 0 1.294.478 1.294 1.51v4.655h2.957V9.785c0-1.71-.94-2.851-2.618-2.851-1.294 0-2.218.6-2.65 1.649h-.462l-.354-1.495H87.08v8.384Zm9.618-4.177c0 2.605 1.71 4.331 4.313 4.331 2.156 0 3.743-1.14 3.958-2.897h-2.803c-.077.477-.57.755-1.248.755-.693 0-1.263-.432-1.263-1.08v-.43h5.222c.092-.324.123-.771.123-1.203 0-2.497-1.802-3.837-4.082-3.837-2.372 0-4.22 1.572-4.22 4.361Zm2.957-1.079v-.17c0-.554.524-.955 1.232-.955.709 0 1.171.401 1.171.956v.17h-2.403ZM28.76 7.089h5.807v8.383H31.61V9.444h-2.85v6.028h-2.957V9.444h-1.526V7.089h1.526v-.723c0-.196.003-.339.008-.429.005-.095.02-.213.045-.354.03-.14.075-.29.135-.451.296-.813 1.05-1.22 2.264-1.22h2.399v2.281H28.76v.896Zm2.866-.896v-2.28h2.94v2.28h-2.94Z"/></svg>